<svg width="14" height="14" viewBox="0 0 14 14" fill="none" xmlns="http://www.w3.org/2000/svg">
<path d="M7.30741 13.6606C7.01742 13.6606 6.75995 13.473 6.6713 13.1968L5.36746 9.14141L1.31204 7.83757C1.03586 7.74892 0.848322 7.49145 0.848322 7.20146C0.848322 6.91147 1.03586 6.654 1.31204 6.56535L5.36746 5.26151L6.6713 1.20609C6.75995 0.929904 7.01742 0.742368 7.30741 0.742368C7.5974 0.742368 7.85488 0.929904 7.94352 1.20609L9.24737 5.26151L13.3028 6.56535C13.579 6.654 13.7665 6.91147 13.7665 7.20146C13.7665 7.49145 13.579 7.74892 13.3028 7.83757L9.24737 9.14141L7.94352 13.1968C7.85488 13.473 7.5974 13.6606 7.30741 13.6606Z" fill="#5E7BC6"/>
</svg>


