<svg width="20" height="20" viewBox="0 0 20 20" fill="none" xmlns="http://www.w3.org/2000/svg">
<path d="M7.47681 14.7916H12.5276" stroke="#4F4F4F" stroke-width="1.25" stroke-miterlimit="10"/>
<path d="M18.125 6.875H19.375" stroke="#4F4F4F" stroke-width="1.25" stroke-miterlimit="10" stroke-linecap="round" stroke-linejoin="round"/>
<path d="M0.625 6.875H1.875" stroke="#4F4F4F" stroke-width="1.25" stroke-miterlimit="10" stroke-linecap="round" stroke-linejoin="round"/>
<path d="M16.5789 11.7871L17.168 12.3763" stroke="#4F4F4F" stroke-width="1.25" stroke-miterlimit="10" stroke-linecap="round" stroke-linejoin="round"/>
<path d="M2.83203 1.37378L3.4212 1.96295" stroke="#4F4F4F" stroke-width="1.25" stroke-miterlimit="10" stroke-linecap="round" stroke-linejoin="round"/>
<path d="M3.4212 11.7871L2.83203 12.3763" stroke="#4F4F4F" stroke-width="1.25" stroke-miterlimit="10" stroke-linecap="round" stroke-linejoin="round"/>
<path d="M17.168 1.37378L16.5789 1.96295" stroke="#4F4F4F" stroke-width="1.25" stroke-miterlimit="10" stroke-linecap="round" stroke-linejoin="round"/>
<path d="M10.0001 2.29834C7.12425 2.29917 4.79175 4.62417 4.79175 7.50001C4.79175 8.99084 5.42008 10.3333 6.42466 11.2825C6.65675 11.5017 6.81008 11.7913 6.87966 12.1029L7.90758 16.7296C8.03467 17.3017 8.54175 17.7083 9.128 17.7083H10.0001H10.8726C11.4584 17.7083 11.9659 17.3013 12.093 16.7296L13.1209 12.1029C13.1901 11.7913 13.3434 11.5017 13.5759 11.2825C14.5801 10.3333 15.2084 8.99084 15.2084 7.50001C15.2084 4.62417 12.8759 2.29917 10.0001 2.29834Z" stroke="#4F4F4F" stroke-width="1.25" stroke-miterlimit="10"/>
</svg>
