<svg width="38" height="37" viewBox="0 0 38 37" fill="none" xmlns="http://www.w3.org/2000/svg">
<path d="M19.0156 0.30468C18.4342 0.29738 17.8497 0.459076 17.3438 0.787102C17.3326 0.794117 17.3215 0.801279 17.3105 0.808586L0.650391 12.2637C0.449825 12.4015 0.285813 12.5861 0.172503 12.8015C0.0591941 13.0169 -9.70539e-06 13.2566 1.19337e-09 13.5V33.5C1.19337e-09 35.4149 1.58505 37 3.5 37H8.5C8.89781 37 9.27932 36.8419 9.56062 36.5606C9.84191 36.2793 9.99996 35.8978 10 35.5V23.5C10 22.6535 10.6535 22 11.5 22H26.4844C27.3344 22 27.9885 22.6575 27.9844 23.5078L27.9258 35.4922C27.9248 35.6898 27.9628 35.8857 28.0378 36.0686C28.1127 36.2515 28.223 36.4177 28.3624 36.5578C28.5018 36.698 28.6675 36.8092 28.85 36.885C29.0325 36.9609 29.2281 37 29.4258 37H34.5C36.415 37 38 35.4149 38 33.5V13.5C37.9998 13.2564 37.9403 13.0166 37.8266 12.8012C37.713 12.5858 37.5486 12.4013 37.3477 12.2637L20.6738 0.828117C20.176 0.486589 19.5971 0.311978 19.0156 0.30468ZM18.9766 3.30273H18.9785L35 14.291V33.5C35 33.795 34.795 34 34.5 34H30.9336L30.9844 23.5215C30.9963 21.0458 28.9604 19 26.4844 19H11.5C9.0325 19 7 21.0325 7 23.5V34H3.5C3.20495 34 3 33.795 3 33.5V14.2891L18.9766 3.30273ZM13.5 24C13.3012 23.9972 13.1039 24.0339 12.9194 24.108C12.735 24.1821 12.5671 24.2922 12.4255 24.4318C12.284 24.5713 12.1716 24.7376 12.0949 24.921C12.0181 25.1044 11.9786 25.3012 11.9786 25.5C11.9786 25.6988 12.0181 25.8956 12.0949 26.079C12.1716 26.2624 12.284 26.4287 12.4255 26.5682C12.5671 26.7078 12.735 26.8178 12.9194 26.892C13.1039 26.9661 13.3012 27.0028 13.5 27H24.5C24.6988 27.0028 24.8961 26.9661 25.0806 26.892C25.265 26.8178 25.4329 26.7078 25.5745 26.5682C25.716 26.4287 25.8284 26.2624 25.9051 26.079C25.9819 25.8956 26.0214 25.6988 26.0214 25.5C26.0214 25.3012 25.9819 25.1044 25.9051 24.921C25.8284 24.7376 25.716 24.5713 25.5745 24.4318C25.4329 24.2922 25.265 24.1821 25.0806 24.108C24.8961 24.0339 24.6988 23.9972 24.5 24H13.5ZM13.5 29C13.3012 28.9972 13.1039 29.0339 12.9194 29.108C12.735 29.1821 12.5671 29.2922 12.4255 29.4318C12.284 29.5713 12.1716 29.7376 12.0949 29.921C12.0181 30.1044 11.9786 30.3012 11.9786 30.5C11.9786 30.6988 12.0181 30.8956 12.0949 31.079C12.1716 31.2624 12.284 31.4287 12.4255 31.5682C12.5671 31.7078 12.735 31.8178 12.9194 31.892C13.1039 31.9661 13.3012 32.0028 13.5 32H24.5C24.6988 32.0028 24.8961 31.9661 25.0806 31.892C25.265 31.8178 25.4329 31.7078 25.5745 31.5682C25.716 31.4287 25.8284 31.2624 25.9051 31.079C25.9819 30.8956 26.0214 30.6988 26.0214 30.5C26.0214 30.3012 25.9819 30.1044 25.9051 29.921C25.8284 29.7376 25.716 29.5713 25.5745 29.4318C25.4329 29.2922 25.265 29.1821 25.0806 29.108C24.8961 29.0339 24.6988 28.9972 24.5 29H13.5ZM13.5 34C13.3012 33.9972 13.1039 34.0339 12.9194 34.108C12.735 34.1821 12.5671 34.2922 12.4255 34.4318C12.284 34.5713 12.1716 34.7376 12.0949 34.921C12.0181 35.1044 11.9786 35.3012 11.9786 35.5C11.9786 35.6988 12.0181 35.8956 12.0949 36.079C12.1716 36.2624 12.284 36.4287 12.4255 36.5682C12.5671 36.7078 12.735 36.8178 12.9194 36.892C13.1039 36.9661 13.3012 37.0028 13.5 37H24.5C24.6988 37.0028 24.8961 36.9661 25.0806 36.892C25.265 36.8178 25.4329 36.7078 25.5745 36.5682C25.716 36.4287 25.8284 36.2624 25.9051 36.079C25.9819 35.8956 26.0214 35.6988 26.0214 35.5C26.0214 35.3012 25.9819 35.1044 25.9051 34.921C25.8284 34.7376 25.716 34.5713 25.5745 34.4318C25.4329 34.2922 25.265 34.1821 25.0806 34.108C24.8961 34.0339 24.6988 33.9972 24.5 34H13.5Z" fill="black"/>
</svg>
