<svg width="20" height="20" viewBox="0 0 20 20" fill="none" xmlns="http://www.w3.org/2000/svg">
<path d="M14.5833 16.6666L14.2445 17.1745C13.9358 17.6383 13.4153 17.9166 12.8578 17.9166H7.29159C5.10534 17.9166 3.33325 16.1445 3.33325 13.9583V5.89204C3.33325 5.33496 3.61159 4.81454 4.07534 4.50538L4.58325 4.16663V13.9583C4.58325 15.4541 5.79575 16.6666 7.29159 16.6666H14.5833Z" fill="#333333"/>
<path d="M16.0417 7.29171H12.5159C11.9317 7.29171 11.4584 6.81796 11.4584 6.23421V2.70837H7.70841C6.788 2.70837 6.04175 3.45462 6.04175 4.37504V13.5417C6.04175 14.4621 6.788 15.2084 7.70841 15.2084H14.3751C15.2955 15.2084 16.0417 14.4621 16.0417 13.5417V7.29171Z" stroke="#333333" stroke-width="1.25" stroke-miterlimit="10" stroke-linejoin="round"/>
<path d="M8.95825 12.2916H13.1249" stroke="#333333" stroke-width="1.25" stroke-miterlimit="10" stroke-linecap="round" stroke-linejoin="round"/>
<path d="M8.95825 9.79163H13.1249" stroke="#333333" stroke-width="1.25" stroke-miterlimit="10" stroke-linecap="round" stroke-linejoin="round"/>
<path d="M16.0416 7.29171L11.4583 2.70837" stroke="#333333" stroke-width="1.25" stroke-miterlimit="10" stroke-linejoin="round"/>
</svg>
