<svg width="18" height="10" viewBox="0 0 18 10" fill="none" xmlns="http://www.w3.org/2000/svg">
<path d="M17.1199 -0.00898083C16.9548 -0.00508293 16.798 0.0639612 16.6837 0.183076L9.00056 7.86618L1.31746 0.183076C1.2592 0.123082 1.1895 0.0753877 1.11247 0.0428176C1.03545 0.0102475 0.952676 -0.00653609 0.869051 -0.00653942C0.744667 -0.00650909 0.62312 0.0306304 0.519962 0.100127C0.416805 0.169625 0.336727 0.268319 0.289975 0.383582C0.243223 0.498845 0.231923 0.625436 0.25752 0.747158C0.283118 0.868879 0.344449 0.980196 0.433667 1.06687L8.55867 9.19186C8.67588 9.30903 8.83483 9.37485 9.00056 9.37485C9.16629 9.37485 9.32524 9.30903 9.44246 9.19186L17.5675 1.06687C17.6583 0.979633 17.7208 0.866973 17.7465 0.743656C17.7722 0.620339 17.7601 0.49212 17.7117 0.375809C17.6633 0.259497 17.5809 0.160521 17.4753 0.0918567C17.3697 0.0231922 17.2458 -0.0119563 17.1199 -0.00898083Z" fill="#5E7BC6"/>
</svg>
