<svg width="16" height="16" viewBox="0 0 16 16" fill="none" xmlns="http://www.w3.org/2000/svg">
<path d="M9.16659 1C8.89054 1 8.66659 1.22396 8.66659 1.5V6.83333C8.66659 7.10938 8.89054 7.33333 9.16659 7.33333H14.4999C14.776 7.33333 14.9999 7.10938 14.9999 6.83333C14.9999 3.61719 12.3827 1 9.16659 1ZM9.66659 2.04948C11.9361 2.28516 13.7148 4.0638 13.9491 6.33333H9.66659V2.04948ZM7.16659 3C3.95044 3 1.33325 5.61719 1.33325 8.83333C1.33325 12.0495 3.95044 14.6667 7.16659 14.6667C10.3827 14.6667 12.9999 12.0495 12.9999 8.83333C12.9999 8.55729 12.776 8.33333 12.4999 8.33333H7.66659V3.5C7.66659 3.22396 7.44263 3 7.16659 3ZM6.66659 4.05078V8.83333C6.66659 9.10938 6.89054 9.33333 7.16659 9.33333H11.9491C11.6978 11.7695 9.67049 13.6667 7.16659 13.6667C4.4908 13.6667 2.33325 11.5091 2.33325 8.83333C2.33325 6.32943 4.23039 4.30208 6.66659 4.05078Z" fill="#4F4F4F"/>
</svg>
