<svg width="36" height="40" viewBox="0 0 36 40" fill="none" xmlns="http://www.w3.org/2000/svg">
<path d="M18.0002 0C10.2856 0 4.00018 6.28546 4.00018 14C4.00018 17.4637 5.27279 20.6435 7.35955 23.0859V23.0879H7.36151C7.36151 23.0879 13.1493 29.8666 15.299 31.918C16.7983 33.3483 19.1996 33.3475 20.6994 31.918C23.1293 29.601 28.6369 23.0906 28.6408 23.0859L28.6428 23.082C30.7289 20.6399 32.0002 17.4622 32.0002 14C32.0002 6.28546 25.7147 0 18.0002 0ZM18.0002 3C24.0936 3 29.0002 7.90655 29.0002 14C29.0002 16.7323 28.0056 19.2112 26.3596 21.1367V21.1387H26.3576C26.3576 21.1387 20.6324 27.8359 18.6291 29.7461C18.2588 30.0994 17.7396 30.0994 17.3693 29.7461C15.7157 28.1681 9.64327 21.1418 9.63885 21.1367L9.6369 21.1328C7.99345 19.2076 7.00018 16.7307 7.00018 14C7.00018 7.90655 11.9067 3 18.0002 3ZM18.0002 6C15.2565 6 13.0002 8.25634 13.0002 11V11.3887C12.9974 11.5874 13.0341 11.7848 13.1082 11.9692C13.1823 12.1537 13.2924 12.3216 13.4319 12.4631C13.5715 12.6047 13.7378 12.7171 13.9212 12.7938C14.1046 12.8705 14.3014 12.91 14.5002 12.91C14.699 12.91 14.8958 12.8705 15.0792 12.7938C15.2625 12.7171 15.4289 12.6047 15.5684 12.4631C15.708 12.3216 15.818 12.1537 15.8921 11.9692C15.9663 11.7848 16.003 11.5874 16.0002 11.3887V11C16.0002 9.87766 16.8778 9 18.0002 9C19.1225 9 20.0002 9.87766 20.0002 11C20.0002 12.25 19.6486 12.3613 18.7736 13.1113C17.8986 13.8613 16.5002 15.25 16.5002 17.5C16.4974 17.6988 16.5341 17.8961 16.6082 18.0806C16.6823 18.265 16.7924 18.4329 16.9319 18.5745C17.0715 18.716 17.2378 18.8284 17.4212 18.9051C17.6046 18.9819 17.8014 19.0214 18.0002 19.0214C18.199 19.0214 18.3958 18.9819 18.5792 18.9051C18.7625 18.8284 18.9289 18.716 19.0684 18.5745C19.208 18.4329 19.318 18.265 19.3921 18.0806C19.4663 17.8961 19.503 17.6988 19.5002 17.5C19.5002 16.25 19.8517 16.1387 20.7267 15.3887C21.6017 14.6387 23.0002 13.25 23.0002 11C23.0002 8.25634 20.7438 6 18.0002 6ZM18.0002 21C17.4697 21 16.961 21.2107 16.586 21.5858C16.2109 21.9609 16.0002 22.4696 16.0002 23C16.0002 23.5304 16.2109 24.0391 16.586 24.4142C16.961 24.7893 17.4697 25 18.0002 25C18.5306 25 19.0393 24.7893 19.4144 24.4142C19.7895 24.0391 20.0002 23.5304 20.0002 23C20.0002 22.4696 19.7895 21.9609 19.4144 21.5858C19.0393 21.2107 18.5306 21 18.0002 21ZM5.66229 24.1582C3.65029 24.6232 2.03591 26.1727 1.55291 28.2637L0.115414 34.4883C-0.194586 35.8323 0.121648 37.2237 0.980649 38.3027C1.83965 39.3817 3.12313 40 4.50213 40H31.4982C32.8772 40 34.1607 39.3817 35.0197 38.3027C35.8787 37.2237 36.1939 35.8323 35.8849 34.4883L34.4474 28.2637C33.9644 26.1737 32.3501 24.6232 30.3381 24.1582C30.2771 24.2322 29.0494 25.689 27.9084 27H29.0881C30.2591 27 31.2606 27.7965 31.5236 28.9375L32.9611 35.1621C33.0651 35.6101 32.961 36.0746 32.674 36.4336C32.387 36.7936 31.9572 37 31.4982 37H4.50213C4.04313 37 3.6143 36.7936 3.3283 36.4336C3.0413 36.0746 2.93524 35.6101 3.03924 35.1621L4.47674 28.9375C4.73874 27.7965 5.74129 27 6.91229 27H8.1076C6.9706 25.7 5.72529 24.2342 5.66229 24.1582Z" fill="black"/>
</svg>
