<svg version="1.1" id="Layer_1" xmlns="http://www.w3.org/2000/svg" xmlns:xlink="http://www.w3.org/1999/xlink" x="0px" y="0px" viewBox="0 0 48.1 47" style="enable-background:new 0 0 48.1 47;" xml:space="preserve">
 <style type="text/css">
  .st0{fill:#EF4323;}
	.st1{fill:#91877F;}
 </style>
 <desc>
  Created with Sketch.
 </desc>
 <g id="Symbols">
  <g id="Logo_x2F_Color">
   <g id="Group-2">
    <g id="Group" transform="translate(53.000000, 18.000000)">
     <path id="Path" class="st0" d="M-4.9,29H-17V6.1c0-6.6-5.4-12-12-12c-6.6,0-12,5.4-12,12V29H-53V6.1C-53-7.2-42.2-18-28.9-18
					S-4.9-7.2-4.9,6.1L-4.9,29L-4.9,29z">
     </path>
    </g>
    <path id="Path_4_" class="st1" d="M32.6,31.4c0,2.1-1.7,3.8-3.8,3.8c-2.1,0-3.8-1.7-3.8-3.8s1.7-3.8,3.8-3.8
				C30.9,27.5,32.6,29.2,32.6,31.4L32.6,31.4z">
    </path>
   </g>
  </g>
 </g>
</svg>