<svg width="13" height="19" viewBox="0 0 13 19" fill="none" xmlns="http://www.w3.org/2000/svg">
<path d="M6.25006 0C4.18643 0 2.50006 1.68637 2.50006 3.75V10C2.50006 12.0636 4.18643 13.75 6.25006 13.75C8.3137 13.75 10.0001 12.0636 10.0001 10V3.75C10.0001 1.68637 8.3137 0 6.25006 0ZM6.25006 1.25C7.6381 1.25 8.75006 2.36197 8.75006 3.75V10C8.75006 11.388 7.6381 12.5 6.25006 12.5C4.86203 12.5 3.75006 11.388 3.75006 10V3.75C3.75006 2.36197 4.86203 1.25 6.25006 1.25ZM0.615298 7.90772C0.44968 7.9103 0.291861 7.97852 0.176504 8.09739C0.0611483 8.21625 -0.00231141 8.37605 6.43834e-05 8.54167V10C6.43834e-05 13.2335 2.47258 15.9034 5.62506 16.2183V18.125C5.62389 18.2078 5.63919 18.29 5.67008 18.3669C5.70096 18.4438 5.74681 18.5137 5.80496 18.5727C5.86312 18.6317 5.93241 18.6785 6.00882 18.7105C6.08523 18.7424 6.16724 18.7589 6.25006 18.7589C6.33289 18.7589 6.4149 18.7424 6.49131 18.7105C6.56772 18.6785 6.63701 18.6317 6.69516 18.5727C6.75332 18.5137 6.79917 18.4438 6.83005 18.3669C6.86093 18.29 6.87624 18.2078 6.87506 18.125V16.2183C10.0275 15.9034 12.5001 13.2335 12.5001 10V8.54167C12.5012 8.45885 12.4859 8.37662 12.4551 8.29977C12.4242 8.22291 12.3783 8.15296 12.3202 8.09398C12.262 8.035 12.1927 7.98816 12.1163 7.95619C12.0399 7.92423 11.9579 7.90777 11.8751 7.90777C11.7922 7.90777 11.7102 7.92423 11.6338 7.95619C11.5574 7.98816 11.4881 8.035 11.43 8.09398C11.3718 8.15296 11.326 8.22291 11.2951 8.29977C11.2642 8.37662 11.2489 8.45885 11.2501 8.54167V10C11.2501 12.7439 9.05826 14.9561 6.32412 14.9959C6.29632 14.9924 6.26832 14.9908 6.2403 14.991C6.21744 14.9914 6.19462 14.9931 6.17194 14.9959C3.4397 14.954 1.25006 12.7425 1.25006 10V8.54167C1.25126 8.45801 1.23566 8.37497 1.20417 8.29746C1.17269 8.21995 1.12596 8.14955 1.06677 8.09043C1.00757 8.03131 0.937112 7.98468 0.859562 7.95329C0.782011 7.92191 0.698949 7.90641 0.615298 7.90772Z" fill="#5E7BC6"/>
</svg>
