<svg width="20" height="20" viewBox="0 0 20 20" fill="none" xmlns="http://www.w3.org/2000/svg">
<path d="M9.98724 0.489349C9.7885 0.492454 9.59912 0.574317 9.46069 0.716956C9.32226 0.859595 9.24611 1.05135 9.24896 1.25009V9.25009H1.24896C1.14958 9.24869 1.05091 9.26705 0.958681 9.30411C0.866455 9.34117 0.782514 9.39619 0.711737 9.46597C0.640959 9.53576 0.584757 9.61891 0.546396 9.7106C0.508036 9.80229 0.488281 9.9007 0.488281 10.0001C0.488281 10.0995 0.508036 10.1979 0.546396 10.2896C0.584757 10.3813 0.640959 10.4644 0.711737 10.5342C0.782514 10.604 0.866455 10.659 0.958681 10.6961C1.05091 10.7331 1.14958 10.7515 1.24896 10.7501H9.24896V18.7501C9.24756 18.8495 9.26592 18.9481 9.30298 19.0404C9.34004 19.1326 9.39506 19.2165 9.46484 19.2873C9.53463 19.3581 9.61778 19.4143 9.70947 19.4527C9.80117 19.491 9.89957 19.5108 9.99896 19.5108C10.0984 19.5108 10.1968 19.491 10.2885 19.4527C10.3801 19.4143 10.4633 19.3581 10.5331 19.2873C10.6029 19.2165 10.6579 19.1326 10.6949 19.0404C10.732 18.9481 10.7504 18.8495 10.749 18.7501V10.7501H18.749C18.8483 10.7515 18.947 10.7331 19.0392 10.6961C19.1315 10.659 19.2154 10.604 19.2862 10.5342C19.357 10.4644 19.4132 10.3813 19.4515 10.2896C19.4899 10.1979 19.5096 10.0995 19.5096 10.0001C19.5096 9.9007 19.4899 9.80229 19.4515 9.7106C19.4132 9.61891 19.357 9.53576 19.2862 9.46597C19.2154 9.39619 19.1315 9.34117 19.0392 9.30411C18.947 9.26705 18.8483 9.24869 18.749 9.25009H10.749V1.25009C10.7504 1.14971 10.7317 1.05006 10.6939 0.957046C10.6561 0.864034 10.6 0.779553 10.529 0.70861C10.458 0.637666 10.3734 0.581705 10.2804 0.544042C10.1873 0.506379 10.0876 0.487781 9.98724 0.489349Z" fill="white"/>
</svg>
