<svg width="16" height="16" viewBox="0 0 16 16" fill="none" xmlns="http://www.w3.org/2000/svg">
<path d="M8.00008 8.00004C9.84103 8.00004 11.3334 6.50766 11.3334 4.66671C11.3334 2.82576 9.84103 1.33337 8.00008 1.33337C6.15913 1.33337 4.66675 2.82576 4.66675 4.66671C4.66675 6.50766 6.15913 8.00004 8.00008 8.00004Z" fill="#777676"/>
<path d="M12.0071 9.33337H3.99308C3.26175 9.33337 2.66675 9.92837 2.66675 10.6597V11.1667C2.66675 12.2707 3.29508 13.2254 4.43575 13.8544C5.38475 14.3784 6.65075 14.6667 8.00008 14.6667C10.5687 14.6667 13.3334 13.5714 13.3334 11.1667V10.6597C13.3334 9.92837 12.7384 9.33337 12.0071 9.33337Z" fill="#777676"/>
</svg>
