<svg width="48" height="48" viewBox="0 0 48 48" fill="none" xmlns="http://www.w3.org/2000/svg">
<path d="M24 4C12.9723 4 4 12.9723 4 24C4 35.0277 12.9723 44 24 44C35.0277 44 44 35.0277 44 24C44 12.9723 35.0277 4 24 4ZM24 7C33.4063 7 41 14.5937 41 24C41 33.4063 33.4063 41 24 41C14.5937 41 7 33.4063 7 24C7 14.5937 14.5937 7 24 7ZM19.5 16C17.585 16 16 17.585 16 19.5V28.5C16 30.415 17.585 32 19.5 32H28.5C30.415 32 32 30.415 32 28.5V19.5C32 17.585 30.415 16 28.5 16H19.5ZM19.5 19H28.5C28.795 19 29 19.205 29 19.5V28.5C29 28.795 28.795 29 28.5 29H19.5C19.205 29 19 28.795 19 28.5V19.5C19 19.205 19.205 19 19.5 19Z" fill="red"/>
</svg>
