<svg width="20" height="20" viewBox="0 0 20 20" fill="none" xmlns="http://www.w3.org/2000/svg">
<path d="M4.36515 2.07436C4.19953 2.07694 4.04171 2.14516 3.92636 2.26403C3.811 2.38289 3.74754 2.54269 3.74992 2.70831V6.04164C3.74875 6.12446 3.76405 6.20669 3.79493 6.28354C3.82582 6.3604 3.87167 6.43035 3.92982 6.48933C3.98797 6.54831 4.05727 6.59515 4.13368 6.62711C4.21009 6.65908 4.29209 6.67554 4.37492 6.67554C4.45775 6.67554 4.53975 6.65908 4.61616 6.62711C4.69257 6.59515 4.76187 6.54831 4.82002 6.48933C4.87817 6.43035 4.92402 6.3604 4.95491 6.28354C4.98579 6.20669 5.00109 6.12446 4.99992 6.04164V2.70831C5.00112 2.62466 4.98551 2.54161 4.95403 2.4641C4.92254 2.38659 4.87582 2.31619 4.81662 2.25707C4.75743 2.19795 4.68697 2.15132 4.60942 2.11993C4.53187 2.08855 4.4488 2.07305 4.36515 2.07436ZM6.86515 2.07436C6.69953 2.07694 6.54171 2.14516 6.42636 2.26403C6.311 2.38289 6.24754 2.54269 6.24992 2.70831V3.95831C6.24875 4.04113 6.26405 4.12335 6.29493 4.20021C6.32582 4.27706 6.37167 4.34702 6.42982 4.406C6.48797 4.46498 6.55727 4.51181 6.63368 4.54378C6.71009 4.57575 6.79209 4.59221 6.87492 4.59221C6.95775 4.59221 7.03975 4.57575 7.11616 4.54378C7.19257 4.51181 7.26187 4.46498 7.32002 4.406C7.37817 4.34702 7.42402 4.27706 7.45491 4.20021C7.48579 4.12335 7.50109 4.04113 7.49992 3.95831V2.70831C7.50112 2.62466 7.48551 2.54161 7.45403 2.4641C7.42254 2.38659 7.37582 2.31619 7.31662 2.25707C7.25743 2.19795 7.18697 2.15132 7.10942 2.11993C7.03187 2.08855 6.9488 2.07305 6.86515 2.07436ZM13.1152 2.07436C12.9495 2.07694 12.7917 2.14516 12.6764 2.26403C12.561 2.38289 12.4975 2.54269 12.4999 2.70831V3.95831C12.4987 4.04113 12.514 4.12335 12.5449 4.20021C12.5758 4.27706 12.6217 4.34702 12.6798 4.406C12.738 4.46498 12.8073 4.51181 12.8837 4.54378C12.9601 4.57575 13.0421 4.59221 13.1249 4.59221C13.2077 4.59221 13.2897 4.57575 13.3662 4.54378C13.4426 4.51181 13.5119 4.46498 13.57 4.406C13.6282 4.34702 13.674 4.27706 13.7049 4.20021C13.7358 4.12335 13.7511 4.04113 13.7499 3.95831V2.70831C13.7511 2.62466 13.7355 2.54161 13.704 2.4641C13.6725 2.38659 13.6258 2.31619 13.5666 2.25707C13.5074 2.19795 13.437 2.15132 13.3594 2.11993C13.2819 2.08855 13.1988 2.07305 13.1152 2.07436ZM15.6152 2.07436C15.4495 2.07694 15.2917 2.14516 15.1764 2.26403C15.061 2.38289 14.9975 2.54269 14.9999 2.70831V6.04164C14.9987 6.12446 15.014 6.20669 15.0449 6.28354C15.0758 6.3604 15.1217 6.43035 15.1798 6.48933C15.238 6.54831 15.3073 6.59515 15.3837 6.62711C15.4601 6.65908 15.5421 6.67554 15.6249 6.67554C15.7077 6.67554 15.7897 6.65908 15.8662 6.62711C15.9426 6.59515 16.0119 6.54831 16.07 6.48933C16.1282 6.43035 16.174 6.3604 16.2049 6.28354C16.2358 6.20669 16.2511 6.12446 16.2499 6.04164V2.70831C16.2511 2.62466 16.2355 2.54161 16.204 2.4641C16.1725 2.38659 16.1258 2.31619 16.0666 2.25707C16.0074 2.19795 15.937 2.15132 15.8594 2.11993C15.7819 2.08855 15.6988 2.07305 15.6152 2.07436ZM10.0007 4.58412C9.55351 4.58412 9.10621 4.71551 8.72144 4.97882L4.10718 8.13637C3.62357 8.46648 3.33325 9.01581 3.33325 9.60121V13.3146C3.33325 13.9 3.62352 14.4489 4.10555 14.7794C4.10555 14.7797 4.10555 14.78 4.10555 14.7802L8.72062 17.9378C9.49016 18.4644 10.5089 18.4644 11.2784 17.9378L15.8927 14.7802C16.3763 14.4497 16.6658 13.8995 16.6658 13.3146V9.60284V9.60121C16.6665 9.01557 16.3764 8.46632 15.8943 8.13637L11.2792 4.97882C10.8944 4.71551 10.448 4.58412 10.0007 4.58412ZM10.0007 5.83249C10.2006 5.83249 10.4001 5.89194 10.5736 6.01072L14.8803 8.95831L10.5728 11.9059C10.2257 12.1434 9.77331 12.1434 9.42619 11.9059L5.11955 8.95831L9.427 6.01072C9.60056 5.89194 9.80087 5.83249 10.0007 5.83249ZM4.58325 10.1074L8.72062 12.9378C9.49016 13.4644 10.5089 13.4644 11.2784 12.9378L15.4158 10.1074V13.3146C15.4158 13.4888 15.331 13.6506 15.1879 13.7483C15.1876 13.7483 15.1874 13.7483 15.1871 13.7483L10.5728 16.9059C10.2257 17.1434 9.77331 17.1434 9.42619 16.9059L4.81193 13.7483C4.66813 13.6497 4.58325 13.4884 4.58325 13.3146V10.1074Z" fill="black"/>
</svg>
