<svg xmlns="http://www.w3.org/2000/svg" width="24" height="24" viewBox="0 0 24 24" fill="none">
<path d="M2.72306 2.00052C2.60259 2.00489 2.48494 2.03824 2.38008 2.09775C2.27523 2.15725 2.18627 2.24115 2.12073 2.34233C2.05519 2.44352 2.015 2.55902 2.00358 2.67904C1.99215 2.79905 2.00982 2.92006 2.0551 3.03179L5.69083 11.9998L2.0551 20.9677C1.99776 21.109 1.98481 21.2643 2.01797 21.4131C2.05112 21.5619 2.12882 21.697 2.24071 21.8005C2.35259 21.904 2.49336 21.971 2.64426 21.9925C2.79515 22.014 2.94902 21.989 3.08537 21.9209L21.5853 12.6707C21.7099 12.6084 21.8147 12.5126 21.888 12.3941C21.9612 12.2756 22 12.1391 22 11.9998C22 11.8605 21.9612 11.7239 21.888 11.6054C21.8147 11.4869 21.7099 11.3911 21.5853 11.3289L3.08537 2.07865C2.97304 2.02271 2.84847 1.99585 2.72306 2.00052ZM4.19181 4.30917L19.5736 11.9998L4.19181 19.6904L7.00626 12.7498H13.7504C13.8498 12.7512 13.9485 12.7328 14.0407 12.6958C14.1329 12.6587 14.2168 12.6037 14.2876 12.5339C14.3584 12.4641 14.4146 12.381 14.453 12.2893C14.4913 12.1976 14.5111 12.0992 14.5111 11.9998C14.5111 11.9004 14.4913 11.802 14.453 11.7103C14.4146 11.6186 14.3584 11.5354 14.2876 11.4656C14.2168 11.3958 14.1329 11.3408 14.0407 11.3038C13.9485 11.2667 13.8498 11.2483 13.7504 11.2497H7.00626L4.19181 4.30917Z" fill="#5E7BC6"/>
</svg>