<svg width="20" height="20" viewBox="0 0 20 20" fill="none" xmlns="http://www.w3.org/2000/svg">
<path d="M12.8507 2.08415C11.525 2.06871 10.196 2.56409 9.18618 3.57422C7.85445 4.90595 7.45361 6.78858 7.90119 8.49122C6.13984 10.2529 3.06862 13.3238 2.83038 13.562C1.83942 14.553 1.83942 16.1786 2.83038 17.1696C3.82135 18.1606 5.447 18.1606 6.43797 17.1696L11.5088 12.0988C13.2114 12.5463 15.0941 12.1455 16.4258 10.8138C17.9645 9.27506 18.3082 6.99409 17.4715 5.11475C17.4302 5.02212 17.367 4.94093 17.2873 4.87819C17.2076 4.81544 17.1139 4.77303 17.0142 4.7546C16.9144 4.73618 16.8117 4.7423 16.7149 4.77243C16.618 4.80257 16.53 4.85581 16.4583 4.92758L13.7256 7.66032C13.3378 8.04809 12.7279 8.04833 12.3397 7.66032C11.9521 7.27275 11.9522 6.66271 12.3397 6.27442V6.2736L15.0724 3.54086C15.144 3.46913 15.197 3.38108 15.227 3.28429C15.257 3.18751 15.263 3.08489 15.2445 2.98527C15.226 2.88565 15.1835 2.79202 15.1208 2.71245C15.0581 2.63288 14.977 2.56974 14.8844 2.52849C14.4147 2.31928 13.9201 2.1838 13.4179 2.1224C13.2297 2.09937 13.0401 2.08636 12.8507 2.08415ZM12.8401 3.33252C12.9831 3.33448 13.1261 3.34414 13.2682 3.36182C13.3259 3.36899 13.3793 3.39926 13.4367 3.40902L11.4559 5.38982L11.4551 5.39063C10.5897 6.25653 10.5903 7.67855 11.4559 8.54411C12.3218 9.40944 13.7438 9.40967 14.6094 8.54411L16.591 6.5625C16.7934 7.75169 16.4632 9.00882 15.542 9.93002C14.4477 11.0243 12.8718 11.319 11.5088 10.835C11.3975 10.7954 11.2773 10.7881 11.1621 10.8141C11.0468 10.84 10.9413 10.898 10.8577 10.9814L5.55418 16.2858C5.04098 16.799 4.22737 16.799 3.71417 16.2858C3.20098 15.7726 3.20098 14.959 3.71417 14.4458C3.96334 14.1966 7.31015 10.8502 9.01772 9.14226C9.10129 9.05875 9.15948 8.95327 9.18555 8.83804C9.21162 8.72282 9.2045 8.60256 9.16502 8.49122C8.68102 7.12819 8.97573 5.55225 10.07 4.45801C10.8369 3.6908 11.8396 3.31883 12.8401 3.33252Z" fill="black"/>
</svg>
