<svg width="20" height="20" viewBox="0 0 20 20" fill="none" xmlns="http://www.w3.org/2000/svg">
<path d="M10.0021 1.6665C9.34503 1.6665 8.71152 1.7496 8.10673 1.8903C7.98062 1.91974 7.86676 1.98762 7.78089 2.08456C7.69502 2.18151 7.64139 2.30273 7.6274 2.43148L7.49475 3.64079C7.45137 4.03707 7.22246 4.38769 6.87708 4.58724C6.53238 4.78639 6.114 4.80845 5.74915 4.64827H5.74833L4.63749 4.15918C4.51901 4.10704 4.38726 4.09297 4.26043 4.11892C4.13361 4.14487 4.01797 4.20955 3.92948 4.30404C3.06594 5.22467 2.40319 6.33945 2.02682 7.58366C1.98932 7.7075 1.99119 7.83991 2.03215 7.96265C2.07311 8.08538 2.15114 8.19238 2.25549 8.26888L3.24101 8.99154C3.56282 9.22814 3.75208 9.601 3.75208 9.99984C3.75208 10.3989 3.56283 10.7721 3.24101 11.0081L2.25549 11.73C2.15114 11.8065 2.07311 11.9135 2.03215 12.0362C1.99119 12.1589 1.98932 12.2914 2.02682 12.4152C2.40315 13.6593 3.06538 14.7749 3.92948 15.6956C4.01807 15.79 4.13375 15.8545 4.26057 15.8803C4.38739 15.9061 4.51909 15.8919 4.63749 15.8397L5.74833 15.3506C6.11336 15.19 6.53215 15.2131 6.87708 15.4124C7.22246 15.612 7.45137 15.9626 7.49475 16.3589L7.6274 17.5682C7.6415 17.6967 7.69508 17.8177 7.78078 17.9144C7.86648 18.0112 7.98007 18.079 8.10592 18.1086C8.71098 18.2498 9.34503 18.3332 10.0021 18.3332C10.6591 18.3332 11.2926 18.2501 11.8974 18.1094C12.0235 18.0799 12.1374 18.0121 12.2233 17.9151C12.3091 17.8182 12.3628 17.6969 12.3767 17.5682L12.5094 16.3589C12.5528 15.9626 12.7817 15.612 13.1271 15.4124C13.4718 15.2133 13.8902 15.1904 14.255 15.3506L15.3667 15.8397C15.4851 15.8919 15.6168 15.9061 15.7436 15.8803C15.8704 15.8545 15.9861 15.79 16.0747 15.6956C16.9382 14.775 17.601 13.6594 17.9773 12.4152C18.0148 12.2914 18.013 12.1589 17.972 12.0362C17.931 11.9135 17.853 11.8065 17.7487 11.73L16.7631 11.0081C16.4413 10.7721 16.2521 10.3989 16.2521 9.99984C16.2521 9.60079 16.4413 9.22761 16.7631 8.99154L17.7487 8.26969C17.853 8.19319 17.931 8.08619 17.972 7.96346C18.013 7.84073 18.0148 7.70831 17.9773 7.58447C17.601 6.34026 16.9382 5.22467 16.0747 4.30404C15.9861 4.20969 15.8704 4.14516 15.7436 4.11936C15.6168 4.09355 15.4851 4.10775 15.3667 4.15999L14.255 4.64909C13.8902 4.80926 13.4718 4.78639 13.1271 4.58724C12.7817 4.38769 12.5528 4.03707 12.5094 3.64079L12.3767 2.43148C12.3627 2.30298 12.3091 2.18202 12.2234 2.08525C12.1377 1.98847 12.0241 1.92065 11.8982 1.89111C11.2932 1.7499 10.6591 1.6665 10.0021 1.6665ZM10.0021 2.9165C10.408 2.9165 10.7979 2.98937 11.1886 3.05811L11.2667 3.77669C11.3533 4.56791 11.8133 5.27164 12.5021 5.6696C13.1913 6.06781 14.0304 6.11359 14.7587 5.79329L15.4196 5.50277C15.927 6.11209 16.3287 6.80033 16.6093 7.55436L16.0234 7.98405C15.3819 8.45464 15.0021 9.20388 15.0021 9.99984C15.0021 10.7958 15.3819 11.545 16.0234 12.0156L16.6093 12.4453C16.3287 13.1993 15.927 13.8876 15.4196 14.4969L14.7587 14.2064C14.0304 13.8861 13.1913 13.9319 12.5021 14.3301C11.8133 14.728 11.3533 15.4318 11.2667 16.223L11.1886 16.9416C10.7979 17.0101 10.4078 17.0832 10.0021 17.0832C9.59612 17.0832 9.20627 17.0103 8.81555 16.9416L8.73743 16.223C8.65081 15.4318 8.19086 14.728 7.50208 14.3301C6.81284 13.9319 5.9737 13.8861 5.2454 14.2064L4.58459 14.4969C4.07707 13.8877 3.67538 13.1994 3.39482 12.4453L3.98075 12.0156C4.62227 11.545 5.00208 10.7958 5.00208 9.99984C5.00208 9.20388 4.62196 8.45415 3.98075 7.98324L3.39482 7.55355C3.67555 6.79923 4.07768 6.11144 4.58541 5.50195L5.2454 5.79248C5.9737 6.11278 6.81284 6.06781 7.50208 5.6696C8.19086 5.27164 8.65081 4.56791 8.73743 3.77669L8.81555 3.05811C9.20624 2.98956 9.59632 2.9165 10.0021 2.9165ZM10.0021 6.6665C8.16853 6.6665 6.66874 8.16629 6.66874 9.99984C6.66874 11.8334 8.16853 13.3332 10.0021 13.3332C11.8356 13.3332 13.3354 11.8334 13.3354 9.99984C13.3354 8.16629 11.8356 6.6665 10.0021 6.6665ZM10.0021 7.9165C11.1601 7.9165 12.0854 8.84184 12.0854 9.99984C12.0854 11.1578 11.1601 12.0832 10.0021 12.0832C8.84408 12.0832 7.91874 11.1578 7.91874 9.99984C7.91874 8.84184 8.84408 7.9165 10.0021 7.9165Z" fill="#4F4F4F"/>
</svg>
