<svg width="20" height="20" viewBox="0 0 20 20" fill="none" xmlns="http://www.w3.org/2000/svg">
<path d="M14.9999 2.08337C13.3965 2.08337 12.0833 3.39661 12.0833 5.00004C12.0833 5.24411 12.166 5.46232 12.2232 5.68933L7.22729 8.18852C6.69122 7.53085 5.90888 7.08337 4.99992 7.08337C3.39649 7.08337 2.08325 8.39661 2.08325 10C2.08325 11.6035 3.39649 12.9167 4.99992 12.9167C5.90888 12.9167 6.69122 12.4692 7.22729 11.8116L12.2232 14.3108C12.166 14.5378 12.0833 14.756 12.0833 15C12.0833 16.6035 13.3965 17.9167 14.9999 17.9167C16.6033 17.9167 17.9166 16.6035 17.9166 15C17.9166 13.3966 16.6033 12.0834 14.9999 12.0834C14.091 12.0834 13.3086 12.5308 12.7725 13.1885L7.77661 10.6893C7.83386 10.4623 7.91658 10.2441 7.91658 10C7.91658 9.75597 7.83386 9.53776 7.77661 9.31075L12.7725 6.81156C13.3086 7.46923 14.091 7.91671 14.9999 7.91671C16.6033 7.91671 17.9166 6.60347 17.9166 5.00004C17.9166 3.39661 16.6033 2.08337 14.9999 2.08337ZM14.9999 3.33337C15.9278 3.33337 16.6666 4.07216 16.6666 5.00004C16.6666 5.92792 15.9278 6.66671 14.9999 6.66671C14.072 6.66671 13.3333 5.92792 13.3333 5.00004C13.3333 4.07216 14.072 3.33337 14.9999 3.33337ZM4.99992 8.33337C5.9278 8.33337 6.66658 9.07216 6.66658 10C6.66658 10.9279 5.9278 11.6667 4.99992 11.6667C4.07204 11.6667 3.33325 10.9279 3.33325 10C3.33325 9.07216 4.07204 8.33337 4.99992 8.33337ZM14.9999 13.3334C15.9278 13.3334 16.6666 14.0722 16.6666 15C16.6666 15.9279 15.9278 16.6667 14.9999 16.6667C14.072 16.6667 13.3333 15.9279 13.3333 15C13.3333 14.0722 14.072 13.3334 14.9999 13.3334Z" fill="#333333"/>
</svg>
