<svg width="17" height="17" viewBox="0 0 17 17" fill="none" xmlns="http://www.w3.org/2000/svg">
<path d="M2.5835 0.083313C1.20266 0.083313 0.0834961 1.20248 0.0834961 2.58331V11.75C0.0834961 13.1308 1.20266 14.25 2.5835 14.25H3.97184C4.22788 14.4469 4.52501 14.5988 4.85726 14.6854L10.8615 16.2519C11.0736 16.3073 11.2863 16.3333 11.4954 16.3333C12.6034 16.3333 13.615 15.591 13.9108 14.4697L16.2505 5.59519C16.6034 4.25686 15.8009 2.88647 14.4609 2.53855L11.1634 1.68243C10.8016 0.747401 9.89631 0.083313 8.8335 0.083313H2.5835ZM2.5835 1.33331H8.8335C9.52266 1.33331 10.0835 1.89415 10.0835 2.58331V11.75C10.0835 12.4391 9.52266 13 8.8335 13H2.5835C1.89433 13 1.3335 12.4391 1.3335 11.75V2.58331C1.3335 1.89415 1.89433 1.33331 2.5835 1.33331ZM11.3335 3.01788L14.1468 3.74868C14.471 3.83284 14.743 4.03773 14.9118 4.32648C15.0809 4.61523 15.1266 4.95325 15.0412 5.277L12.7015 14.1515C12.5569 14.7003 12.0613 15.0833 11.4954 15.0833C11.3896 15.0833 11.2822 15.0693 11.1781 15.0418L8.14258 14.25H8.8335C10.2143 14.25 11.3335 13.1308 11.3335 11.75V3.01788Z" fill="white"/>
</svg>
