<svg width="20" height="20" viewBox="0 0 20 20" fill="none" xmlns="http://www.w3.org/2000/svg">
<path d="M10.5973 18.291C10.6953 18.2881 10.7912 18.2622 10.8772 18.2154C10.9633 18.1686 11.0372 18.1022 11.0929 18.0216C11.0929 18.0216 11.7498 17.0686 12.5439 15.9863C13.3381 14.9041 14.3054 13.6667 14.7648 13.2324C15.6346 12.41 16.25 11.291 16.25 10.0244L16.25 7.29166C16.25 4.65265 14.0973 2.49999 11.4583 2.49999L7.56673 2.49999C5.99656 2.49999 4.66251 3.67755 4.46615 5.23518L4.24886 6.78873L3.89893 9.28873L3.7557 10.3076C3.56416 11.6751 4.64484 12.9167 6.02539 12.9167L9.55485 12.9167C9.26639 13.631 9.0543 14.2778 8.90625 15.0057C8.90598 15.0057 8.90571 15.0057 8.90544 15.0057C8.81882 15.4321 8.74593 15.7666 8.74593 16.1222C8.74593 16.9791 9.18347 17.5943 9.60775 17.902C10.032 18.2097 10.4728 18.2829 10.4728 18.2829C10.5139 18.2897 10.5557 18.2925 10.5973 18.291ZM10.3589 16.8978C10.35 16.8917 10.3508 16.8962 10.3418 16.8896C10.1623 16.7595 9.99593 16.6029 9.99593 16.1222C9.99593 15.9661 10.0451 15.6775 10.131 15.2547C10.2845 14.5002 10.4587 13.9122 10.7813 13.1592C10.7813 13.1589 10.7813 13.1586 10.7813 13.1584C10.9167 12.8411 10.9032 12.483 10.7373 12.1867C10.5714 11.8903 10.2173 11.6667 9.84375 11.6667L6.02539 11.6667C5.38177 11.6667 4.90501 11.1185 4.9943 10.4809L5.13672 9.46125L5.48666 6.96125L5.70475 5.40201C5.70532 5.39876 5.70587 5.3955 5.70638 5.39224C5.82453 4.44868 6.61613 3.74999 7.56673 3.74999L11.4583 3.74999C13.4218 3.74999 15 5.32816 15 7.29166L15 10.0244C15 10.8861 14.5814 11.6858 13.9063 12.3242C13.2544 12.9403 12.3431 14.1473 11.5365 15.2466C10.8916 16.1254 10.5555 16.6148 10.3589 16.8978Z" fill="#333333"/>
</svg>
